<svg xmlns="http://www.w3.org/2000/svg" width="456" height="450" viewBox="0 0 456 450"><path fill-rule="evenodd" clip-rule="evenodd" fill="#F9CA0F" d="M3.242 165.012l159.9-163.51 190.555 31.262 97.985 162.903L321.84 448.743l-188.155-34.265"/><path fill-rule="evenodd" clip-rule="evenodd" fill="#FEF48C" d="M3.24 165.012L163.14 1.505l-27.385 256.133"/><path fill-rule="evenodd" clip-rule="evenodd" fill="#F9CA0F" d="M384.356 133.152L163.14 1.505l-27.385 256.133"/><path fill-rule="evenodd" clip-rule="evenodd" fill="#F89E1F" d="M353.697 32.764l30.66 100.388L163.14 1.505"/><path fill-rule="evenodd" clip-rule="evenodd" fill="#E44F2E" d="M451.682 195.667L353.697 32.764l30.66 100.388"/><path fill-rule="evenodd" clip-rule="evenodd" fill="#EF7124" d="M322.835 382.705l-187.08-125.067 248.6-124.486"/><path fill-rule="evenodd" clip-rule="evenodd" fill="#CF4B27" d="M133.685 414.478l2.07-156.84 187.08 125.067"/><path fill-rule="evenodd" clip-rule="evenodd" fill="#BC2C26" d="M321.84 448.743L451.68 195.667 322.835 382.705"/><path fill-rule="evenodd" clip-rule="evenodd" fill="#9A231F" d="M133.685 414.478l188.154 34.265.995-66.038"/><path fill-rule="evenodd" clip-rule="evenodd" fill="#ED8423" d="M3.24 165.012l130.445 249.466 2.07-156.84"/><path fill-rule="evenodd" clip-rule="evenodd" fill="#C43F27" d="M451.682 195.667L322.835 382.705l61.52-249.553"/></svg>