<svg xmlns="http://www.w3.org/2000/svg" width="183" height="50" viewBox="0 0 183 50"><path fill-rule="evenodd" clip-rule="evenodd" fill="#F9CA0F" d="M3.597 18.24L20.883.564l20.6 3.38 10.594 17.61-14.037 27.36L17.7 45.21"/><path fill-rule="evenodd" clip-rule="evenodd" fill="#FEF48C" d="M3.596 18.24L20.883.564l-2.96 27.69"/><path fill-rule="evenodd" clip-rule="evenodd" fill="#F9CA0F" d="M44.8 14.796L20.882.564l-2.96 27.69"/><path fill-rule="evenodd" clip-rule="evenodd" fill="#F89E1F" d="M41.484 3.943L44.8 14.796 20.882.564"/><path fill-rule="evenodd" clip-rule="evenodd" fill="#E44F2E" d="M52.077 21.555L41.484 3.943 44.8 14.796"/><path fill-rule="evenodd" clip-rule="evenodd" fill="#EF7124" d="M38.148 41.775l-20.225-13.52L44.8 14.794"/><path fill-rule="evenodd" clip-rule="evenodd" fill="#CF4B27" d="M17.7 45.21l.223-16.956 20.225 13.52"/><path fill-rule="evenodd" clip-rule="evenodd" fill="#BC2C26" d="M38.04 48.915l14.037-27.36-13.93 20.22"/><path fill-rule="evenodd" clip-rule="evenodd" fill="#9A231F" d="M17.7 45.21l20.34 3.705.108-7.14"/><path fill-rule="evenodd" clip-rule="evenodd" fill="#ED8423" d="M3.596 18.24L17.7 45.21l.223-16.956"/><path fill-rule="evenodd" clip-rule="evenodd" fill="#C43F27" d="M52.077 21.555l-13.93 20.22 6.652-26.98"/><path fill-rule="evenodd" clip-rule="evenodd" fill="#FFF" d="M173.91 24.05V12.125h5.49v-2.104h-13.605v2.104h5.47v11.922h2.646zm-8.514 0v-2.105h-7.494c-.42 0-.74-.02-.902-.18-.12-.1-.2-.32-.2-.54v-3.287h8.316v-2.104H156.8V13.01c0-.2 0-.482.22-.682.2-.18.48-.2.72-.2h7.575v-2.104h-8.997c-.54 0-1.222.04-1.683.54-.3.342-.48.903-.48 1.464v9.94c0 .54.04 1.18.52 1.642.46.44 1.002.44 1.603.44h9.118zm-21.76 0h3.586c1.703 0 2.765-.722 3.346-1.323.44-.44 1.182-1.443 1.182-3.587v-9.117h-2.645v8.416c0 1.18-.14 2.143-.902 2.804-.68.6-1.683.7-2.264.7h-2.305v2.105zm-17.774 0h2.645V13.13c0-.282 0-.542.28-.782.22-.2.42-.22.7-.22h4.29c.42 0 1.06 0 1.482.42.28.282.5.843.5 1.945 0 .48-.04 1.483-.32 1.924-.362.56-.983.62-1.444.62h-2.645c-.76 0-1.18.402-1.18.963v.32c0 .402.38.903.66 1.183l4.608 4.548h3.326l-5.33-4.948v-.1h1.803c1.603 0 2.284-.76 2.645-1.443.56-1.043.6-2.145.6-3.167 0-1.022-.04-2.124-.7-3.086-.822-1.222-2.024-1.282-3.005-1.282h-6.652c-.52 0-1.182.08-1.683.56-.56.542-.58 1.243-.58 1.824v11.64zm-1.804 0v-2.105h-7.494c-.42 0-.74-.02-.902-.18-.12-.1-.2-.32-.2-.54v-3.287h8.316v-2.104h-8.316V13.01c0-.2 0-.482.22-.682.2-.18.48-.2.72-.2h7.575v-2.104h-8.997c-.54 0-1.222.04-1.683.54-.3.342-.48.903-.48 1.464v9.94c0 .54.04 1.18.52 1.642.46.44 1.002.44 1.603.44h9.118zm-23.063-6.033h5.37c.862 0 1.262.36 1.423.58.26.382.3 1.023.3 1.424 0 .442-.06 1.063-.36 1.424-.4.48-1.122.5-1.543.5h-4.168c-.2 0-.64.02-.862-.22-.1-.12-.16-.36-.16-.82v-2.887zm0-5.11c0-.16.02-.44.18-.62s.38-.16.6-.16h4.33c.44 0 .92 0 1.3.36.442.422.462 1.123.462 1.504 0 .963-.2 1.303-.3 1.424-.362.5-.923.5-1.444.5h-5.13V12.91zm-.72-2.884c-.442 0-1.063.08-1.484.58-.3.362-.44.923-.44 1.444v10.02c0 .8.34 1.26.48 1.422.562.64 1.203.56 1.905.56h6.713c.862 0 1.763 0 2.565-.902s.802-2.024.802-2.946c0-.78 0-1.783-.66-2.505-.342-.38-.883-.68-1.544-.74v-.08c.522-.04.923-.24 1.323-.722.62-.74.66-1.523.66-2.284 0-.92-.1-2.203-.88-3.005-.742-.76-1.784-.842-2.546-.842h-6.893zM92.8 13.168c.06-.16.2-.46.34-.46.08 0 .24.04.24.42l-.08 10.92h2.646V11.706c0-1.282-.962-1.844-2.264-1.844-1.002 0-1.863.22-2.465 1.803l-3.627 9.357c-.12.3-.26.52-.38.52s-.26-.22-.382-.52L83.2 11.665c-.38-.982-.84-1.803-2.464-1.803-.4 0-2.264.02-2.264 1.844V24.05h2.645l-.06-10.92c0-.06 0-.422.22-.422.12 0 .28.3.34.46l3.588 9.36c.34.88.66 1.682 2.004 1.682 1.24 0 1.602-.62 2.003-1.683l3.587-9.36zm-22.923-.26c.08-.2.22-.58.4-.58.18 0 .322.38.402.58l2.283 5.71h-5.39l2.304-5.71zm-7.193 11.14h2.785l1.422-3.546h6.753l1.443 3.547h2.785l-5.29-12.604c-.5-1.182-1.102-1.583-2.304-1.583-1.263 0-1.804.4-2.305 1.583l-5.29 12.603zM173.82 42.465v-9.053h4.168v-1.598h-10.33v1.598h4.153v9.053h2.01zm-6.924-10.65h-1.948v7.85c0 .076 0 .26-.167.26-.136 0-.166-.153-.243-.26l-4.52-7.136c-.288-.458-.745-.838-1.688-.838-1.005 0-1.63.533-1.63 1.445v9.327h1.948v-7.82c0-.214.137-.305.213-.305.03 0 .092.03.244.258l4.49 7.09c.47.746 1.08.898 1.718.898.867 0 1.582-.426 1.582-1.506v-9.266zm-11.564 10.65v-1.598h-5.69c-.32 0-.564-.015-.686-.137-.09-.076-.152-.243-.152-.41v-2.496h6.314v-1.598h-6.314V34.08c0-.15 0-.364.167-.516.153-.137.366-.152.55-.152h5.75v-1.598h-6.83c-.412 0-.93.03-1.28.41-.227.26-.364.686-.364 1.112v7.547c0 .41.03.898.396 1.248.35.336.76.336 1.217.336h6.922zm-12.75-8.262c.045-.122.15-.35.258-.35.06 0 .183.03.183.32l-.06 8.292h2.007v-9.373c0-.974-.73-1.4-1.72-1.4-.76 0-1.414.167-1.87 1.37l-2.755 7.105c-.09.228-.198.396-.29.396-.09 0-.197-.167-.288-.396l-2.754-7.106c-.29-.744-.64-1.368-1.872-1.368-.303 0-1.718.015-1.718 1.4v9.373h2.008l-.046-8.293c0-.046 0-.32.167-.32.092 0 .214.23.26.35l2.724 7.107c.26.668.502 1.277 1.522 1.277.943 0 1.217-.472 1.52-1.278l2.725-7.107zm-12.25 8.262v-1.598h-5.69c-.32 0-.563-.015-.685-.137-.09-.076-.152-.243-.152-.41v-2.496h6.314v-1.598h-6.315V34.08c0-.15 0-.364.167-.516.152-.137.365-.152.548-.152h5.752v-1.598h-6.832c-.41 0-.928.03-1.278.41-.228.26-.365.686-.365 1.112v7.547c0 .41.03.898.396 1.248.35.336.76.336 1.217.336h6.923zm-10.057-5.22h-2.008v2.907c0 .167 0 .38-.167.548-.167.167-.35.167-.532.167h-2.602c-.852 0-1.598-.228-2.04-1.11-.166-.336-.425-1.066-.425-2.618 0-1.538.26-2.238.442-2.572.41-.746 1.202-1.156 2.358-1.156h4.732v-1.598h-5.295c-1.02 0-1.917.228-2.57.654-1.568 1.02-1.736 2.982-1.736 4.732 0 1.49.107 3.347 1.4 4.428.488.41 1.294.837 2.48.837h4.535c.304 0 .76-.09 1.035-.32.198-.166.396-.5.396-1.05v-3.85zm-15.764-3.24c.062-.152.168-.44.305-.44.137 0 .243.288.304.44l1.734 4.336h-4.093l1.75-4.335zm-5.46 8.46h2.114l1.08-2.693h5.128l1.096 2.693h2.115l-4.017-9.57c-.38-.9-.837-1.203-1.75-1.203-.958 0-1.37.304-1.75 1.202l-4.017 9.57zm-.457-10.65h-1.948v7.85c0 .076 0 .26-.167.26-.137 0-.167-.153-.244-.26l-4.52-7.136c-.288-.458-.745-.838-1.688-.838-1.004 0-1.628.533-1.628 1.445v9.327h1.947v-7.82c0-.214.137-.305.213-.305.03 0 .09.03.244.258l4.49 7.09c.47.746 1.08.898 1.718.898.867 0 1.582-.426 1.582-1.506v-9.266zm-16.722 2.19c.062-.152.168-.44.305-.44.137 0 .244.288.304.44l1.734 4.336H80.12l1.75-4.335zm-5.462 8.46h2.115l1.08-2.693h5.128l1.097 2.693h2.115l-4.017-9.57c-.38-.9-.837-1.203-1.75-1.203-.958 0-1.37.304-1.75 1.202l-4.017 9.57zm-2.845-8.262c.046-.122.152-.35.26-.35.06 0 .182.03.182.32l-.06 8.292h2.007v-9.373c0-.974-.73-1.4-1.72-1.4-.76 0-1.414.167-1.87 1.37l-2.755 7.105c-.09.228-.198.396-.29.396-.09 0-.197-.167-.288-.396l-2.755-7.106c-.29-.744-.64-1.368-1.872-1.368-.304 0-1.72.015-1.72 1.4v9.373h2.01l-.046-8.293c0-.046 0-.32.167-.32.09 0 .213.23.26.35l2.723 7.107c.26.668.502 1.277 1.522 1.277.942 0 1.216-.472 1.52-1.278l2.723-7.107z"/></svg>