<?xml version="1.0" standalone="no"?>
<!DOCTYPE svg PUBLIC "-//W3C//DTD SVG 20010904//EN"
 "http://www.w3.org/TR/2001/REC-SVG-20010904/DTD/svg10.dtd">
<svg version="1.0" xmlns="http://www.w3.org/2000/svg"
 width="260.000000pt" height="260.000000pt" viewBox="0 0 260.000000 260.000000"
 preserveAspectRatio="xMidYMid meet">
<metadata>
Created by potrace 1.11, written by Peter Selinger 2001-2013
</metadata>
<g transform="translate(0.000000,260.000000) scale(0.100000,-0.100000)"
fill="#000000" stroke="none">
<path d="M960 2250 c-33 -35 -611 -628 -655 -672 -6 -5 66 -151 170 -343 18
-33 67 -127 110 -210 190 -367 286 -548 294 -557 6 -7 52 -18 141 -34 14 -2
72 -13 130 -24 58 -10 119 -22 135 -25 17 -2 40 -7 51 -9 27 -5 94 -18 114
-20 14 -3 99 -18 110 -21 23 -5 117 -18 123 -17 4 1 7 -2 7 -8 0 -5 6 -10 13
-10 15 0 25 17 160 280 52 102 137 268 189 370 53 102 130 253 173 335 l77
150 -219 363 c-151 252 -224 364 -238 367 -18 4 -47 9 -130 20 -16 3 -41 7
-55 10 -13 2 -42 7 -65 10 -22 3 -47 8 -55 10 -8 2 -35 7 -60 10 -25 3 -52 8
-60 10 -8 3 -35 7 -60 10 -44 6 -72 10 -120 20 -13 2 -42 7 -65 10 -22 3 -64
10 -94 15 -30 6 -59 10 -65 9 -6 -1 -31 -23 -56 -49z"/>
</g>
</svg>
